<svg width="15" height="15" viewBox="0 0 15 15" fill="none" xmlns="http://www.w3.org/2000/svg">
 <path d="m7.5 1c0.16148 0 0.31301 0.07798 0.40687 0.20938l5 7c0.1088 0.15241 0.1234 0.35288 0.0377 0.51941-0.0857 0.16654-0.2573 0.27121-0.4446 0.27121h-2.5v2.5c0 0.2761-0.22386 0.5-0.5 0.5h-4c-0.27614 0-0.5-0.2239-0.5-0.5v-2.5h-2.5c-0.18729 0-0.35888-0.10467-0.44458-0.27121-0.0857-0.16653-0.07115-0.367 0.03772-0.51941l5-7c0.09385-0.1314 0.24539-0.20938 0.40686-0.20938z" fill="currentColor" fill-rule="evenodd" clip-rule="evenodd" />
</svg>
