<svg width="15" height="15" viewBox="0 0 15 15" fill="none" xmlns="http://www.w3.org/2000/svg">
 <path d="m5 3.5c0-0.27614 0.22386-0.5 0.5-0.5h4c0.27614 0 0.5 0.22386 0.5 0.5v2.5h2.5c0.1873 0 0.3589 0.10467 0.4446 0.27121 0.0857 0.16653 0.0711 0.367-0.0377 0.51941l-5 7c-0.09386 0.1314-0.24539 0.2094-0.40687 0.2094-0.16147 0-0.31301-0.078-0.40686-0.2094l-5-7c-0.10887-0.15241-0.12342-0.35288-0.03772-0.51941 0.0857-0.16654 0.25729-0.27121 0.44458-0.27121h2.5z" fill="currentColor" fill-rule="evenodd" clip-rule="evenodd" />
</svg>
