<?xml version="1.0" encoding="UTF-8"?>
<!-- This file is generated by npm run build:icons -->
<svg xmlns="http://www.w3.org/2000/svg" xmlns:xlink="http://www.w3.org/1999/xlink" width="0" height="0">
<defs>
<symbol viewBox="0 0 15 15" fill="none" id="chat-bubble"><path d="M12.5 3L2.5 3.00002C1.67157 3.00002 1 3.6716 1 4.50002V9.50003C1 10.3285 1.67157 11 2.5 11H7.50003C7.63264 11 7.75982 11.0527 7.85358 11.1465L10 13.2929V11.5C10 11.2239 10.2239 11 10.5 11H12.5C13.3284 11 14 10.3285 14 9.50003V4.5C14 3.67157 13.3284 3 12.5 3ZM2.49999 2.00002L12.5 2C13.8807 2 15 3.11929 15 4.5V9.50003C15 10.8807 13.8807 12 12.5 12H11V14.5C11 14.7022 10.8782 14.8845 10.6913 14.9619C10.5045 15.0393 10.2894 14.9965 10.1464 14.8536L7.29292 12H2.5C1.11929 12 0 10.8807 0 9.50003V4.50002C0 3.11931 1.11928 2.00003 2.49999 2.00002Z" fill="currentColor" fill-rule="evenodd" clip-rule="evenodd"></path></symbol>
<symbol viewBox="0 0 15 15" fill="none" id="minus-circled"><path d="M7.49991 0.876892C3.84222 0.876892 0.877075 3.84204 0.877075 7.49972C0.877075 11.1574 3.84222 14.1226 7.49991 14.1226C11.1576 14.1226 14.1227 11.1574 14.1227 7.49972C14.1227 3.84204 11.1576 0.876892 7.49991 0.876892ZM1.82707 7.49972C1.82707 4.36671 4.36689 1.82689 7.49991 1.82689C10.6329 1.82689 13.1727 4.36671 13.1727 7.49972C13.1727 10.6327 10.6329 13.1726 7.49991 13.1726C4.36689 13.1726 1.82707 10.6327 1.82707 7.49972ZM4.50003 7C4.22389 7 4.00003 7.22386 4.00003 7.5C4.00003 7.77614 4.22389 8 4.50003 8H10.5C10.7762 8 11 7.77614 11 7.5C11 7.22386 10.7762 7 10.5 7H4.50003Z" fill="currentColor" fill-rule="evenodd" clip-rule="evenodd"></path></symbol>
<symbol viewBox="0 0 15 15" fill="none" id="plus-circled"><path d="M7.49991 0.876892C3.84222 0.876892 0.877075 3.84204 0.877075 7.49972C0.877075 11.1574 3.84222 14.1226 7.49991 14.1226C11.1576 14.1226 14.1227 11.1574 14.1227 7.49972C14.1227 3.84204 11.1576 0.876892 7.49991 0.876892ZM1.82707 7.49972C1.82707 4.36671 4.36689 1.82689 7.49991 1.82689C10.6329 1.82689 13.1727 4.36671 13.1727 7.49972C13.1727 10.6327 10.6329 13.1726 7.49991 13.1726C4.36689 13.1726 1.82707 10.6327 1.82707 7.49972ZM7.50003 4C7.77617 4 8.00003 4.22386 8.00003 4.5V7H10.5C10.7762 7 11 7.22386 11 7.5C11 7.77614 10.7762 8 10.5 8H8.00003V10.5C8.00003 10.7761 7.77617 11 7.50003 11C7.22389 11 7.00003 10.7761 7.00003 10.5V8H4.50003C4.22389 8 4.00003 7.77614 4.00003 7.5C4.00003 7.22386 4.22389 7 4.50003 7H7.00003V4.5C7.00003 4.22386 7.22389 4 7.50003 4Z" fill="currentColor" fill-rule="evenodd" clip-rule="evenodd"></path></symbol>
<symbol viewBox="0 0 15 15" fill="none" id="target"><path d="M0.900024 7.50002C0.900024 3.85495 3.85495 0.900024 7.50002 0.900024C11.1451 0.900024 14.1 3.85495 14.1 7.50002C14.1 11.1451 11.1451 14.1 7.50002 14.1C3.85495 14.1 0.900024 11.1451 0.900024 7.50002ZM7.50002 1.80002C4.35201 1.80002 1.80002 4.35201 1.80002 7.50002C1.80002 10.648 4.35201 13.2 7.50002 13.2C10.648 13.2 13.2 10.648 13.2 7.50002C13.2 4.35201 10.648 1.80002 7.50002 1.80002ZM3.07504 7.50002C3.07504 5.05617 5.05618 3.07502 7.50004 3.07502C9.94388 3.07502 11.925 5.05617 11.925 7.50002C11.925 9.94386 9.94388 11.925 7.50004 11.925C5.05618 11.925 3.07504 9.94386 3.07504 7.50002ZM7.50004 3.92502C5.52562 3.92502 3.92504 5.52561 3.92504 7.50002C3.92504 9.47442 5.52563 11.075 7.50004 11.075C9.47444 11.075 11.075 9.47442 11.075 7.50002C11.075 5.52561 9.47444 3.92502 7.50004 3.92502ZM7.50004 5.25002C6.2574 5.25002 5.25004 6.25739 5.25004 7.50002C5.25004 8.74266 6.2574 9.75002 7.50004 9.75002C8.74267 9.75002 9.75004 8.74266 9.75004 7.50002C9.75004 6.25738 8.74267 5.25002 7.50004 5.25002ZM6.05004 7.50002C6.05004 6.69921 6.69923 6.05002 7.50004 6.05002C8.30084 6.05002 8.95004 6.69921 8.95004 7.50002C8.95004 8.30083 8.30084 8.95002 7.50004 8.95002C6.69923 8.95002 6.05004 8.30083 6.05004 7.50002Z" fill="currentColor" fill-rule="evenodd" clip-rule="evenodd"></path></symbol>
<symbol viewBox="0 0 15 15" fill="none" id="thick-arrow-down"><path d="M5 3.5C5 3.22386 5.22386 3 5.5 3H9.5C9.77614 3 10 3.22386 10 3.5V6H12.5C12.6873 6 12.8589 6.10467 12.9446 6.27121C13.0303 6.43774 13.0157 6.63821 12.9069 6.79062L7.90687 13.7906C7.81301 13.922 7.66148 14 7.5 14C7.33853 14 7.18699 13.922 7.09314 13.7906L2.09314 6.79062C1.98427 6.63821 1.96972 6.43774 2.05542 6.27121C2.14112 6.10467 2.31271 6 2.5 6H5V3.5ZM6 4V6.5C6 6.77614 5.77614 7 5.5 7H3.4716L7.5 12.6398L11.5284 7H9.5C9.22386 7 9 6.77614 9 6.5V4H6Z" fill="currentColor" fill-rule="evenodd" clip-rule="evenodd" style="--darkreader-inline-fill: currentColor;" data-darkreader-inline-fill=""></path></symbol>
<symbol viewBox="0 0 15 15" fill="none" id="thick-arrow-up"><path d="M7.5 1C7.66148 1 7.81301 1.07798 7.90687 1.20938L12.9069 8.20938C13.0157 8.36179 13.0303 8.56226 12.9446 8.72879C12.8589 8.89533 12.6873 9 12.5 9H10V11.5C10 11.7761 9.77614 12 9.5 12H5.5C5.22386 12 5 11.7761 5 11.5V9H2.5C2.31271 9 2.14112 8.89533 2.05542 8.72879C1.96972 8.56226 1.98427 8.36179 2.09314 8.20938L7.09314 1.20938C7.18699 1.07798 7.33853 1 7.5 1ZM3.4716 8H5.5C5.77614 8 6 8.22386 6 8.5V11H9V8.5C9 8.22386 9.22386 8 9.5 8H11.5284L7.5 2.36023L3.4716 8Z" fill="currentColor" fill-rule="evenodd" clip-rule="evenodd" style="--darkreader-inline-fill: currentColor;" data-darkreader-inline-fill=""></path></symbol>
</defs>
</svg>
